<?xml version="1.0" encoding="utf-8"?>
<!-- Generator: Adobe Illustrator 16.0.3, SVG Export Plug-In . SVG Version: 6.00 Build 0)  -->
<!DOCTYPE svg PUBLIC "-//W3C//DTD SVG 1.1//EN" "http://www.w3.org/Graphics/SVG/1.1/DTD/svg11.dtd">
<svg version="1.1" id="Layer_1" xmlns="http://www.w3.org/2000/svg" xmlns:xlink="http://www.w3.org/1999/xlink" x="0px" y="0px"
	 width="771.763px" height="240.68px" viewBox="0 0 771.763 240.68" enable-background="new 0 0 771.763 240.68"
	 xml:space="preserve">
<title>2 octave piano keys</title>
<g>
	<title>Layer 1</title>
	<g id="g840" transform="matrix(0.535852, 0, 0, 0.532684, -10.3014, -80.0479)">
		<rect id="rect826" x="98.751" y="154.064" stroke="#000000" stroke-width="0.9659" width="51.717" height="255.707"/>
		<rect id="rect828" x="201.139" y="153.937" stroke="#000000" stroke-width="0.9659" width="51.717" height="255.707"/>
		<rect id="rect829" x="406.251" y="153.429" stroke="#000000" stroke-width="0.9659" width="51.717" height="255.707"/>
		<rect id="rect830" x="508.044" y="154.446" stroke="#000000" stroke-width="0.9659" width="51.717" height="255.707"/>
		<rect id="rect831" x="611.874" y="153.937" stroke="#000000" stroke-width="0.9659" width="51.717" height="255.707"/>
		<rect id="rect832" x="21.594" y="152.633" fill="none" stroke="#000000" stroke-width="2.375" width="718.343" height="449.144"/>
		<path id="path833" fill="none" stroke="#000000" stroke-width="2.375" d="M123.803,399.558v202.179"/>
		<path id="path834" fill="none" stroke="#000000" stroke-width="2.375" d="M227.452,398.583v202.178"/>
		<path id="path835" fill="none" stroke="#000000" stroke-width="2.375" d="M432.249,399.919v202.179"/>
		<path id="path836" fill="none" stroke="#000000" stroke-width="2.375" d="M534.08,399.919v202.179"/>
		<path id="path837" fill="none" stroke="#000000" stroke-width="2.375" d="M638.448,399.198v202.179"/>
		<path id="path839" fill="none" stroke="#000000" stroke-width="2.375" d="M329.726,153.098v448.215"/>
	</g>
	<rect id="svg_1" x="45.3" y="7.813" stroke="#000000" stroke-width="5" width="23" height="127"/>
	<g id="svg_6" transform="matrix(0.535852, 0, 0, 0.532684, -10.3014, -80.0479)">
		<rect id="svg_7" x="818.291" y="153.93" stroke="#000000" stroke-width="0.9659" width="51.717" height="255.707"/>
		<rect id="svg_8" x="920.678" y="153.804" stroke="#000000" stroke-width="0.9659" width="51.717" height="255.707"/>
		<rect id="svg_9" x="1125.791" y="153.294" stroke="#000000" stroke-width="0.9659" width="51.717" height="255.707"/>
		<rect id="svg_10" x="1227.584" y="154.312" stroke="#000000" stroke-width="0.9659" width="51.717" height="255.707"/>
		<rect id="svg_11" x="1331.412" y="153.804" stroke="#000000" stroke-width="0.9659" width="51.717" height="255.707"/>
		<rect id="svg_12" x="741.133" y="152.498" fill="none" stroke="#000000" stroke-width="2.375" width="718.345" height="449.145"/>
		<path id="svg_13" fill="none" stroke="#000000" stroke-width="2.375" d="M843.343,399.425v202.179"/>
		<path id="svg_14" fill="none" stroke="#000000" stroke-width="2.375" d="M946.991,398.448v202.179"/>
		<path id="svg_15" fill="none" stroke="#000000" stroke-width="2.375" d="M1151.788,399.784v202.179"/>
		<path id="svg_16" fill="none" stroke="#000000" stroke-width="2.375" d="M1253.619,399.784v202.179"/>
		<path id="svg_17" fill="none" stroke="#000000" stroke-width="2.375" d="M1357.987,399.064v202.179"/>
		<path id="svg_18" fill="none" stroke="#000000" stroke-width="2.375" d="M1049.265,152.963v448.216"/>
	</g>
	<rect id="svg_19" x="99.798" y="6.313" stroke="#000000" stroke-width="5" width="23" height="127"/>
	<rect id="svg_20" x="209.798" y="7.313" stroke="#000000" stroke-width="5" width="23" height="127"/>
	<rect id="svg_21" x="264.798" y="8.313" stroke="#000000" stroke-width="5" width="23" height="127"/>
	<rect id="svg_22" x="319.799" y="8.313" stroke="#000000" stroke-width="5" width="23" height="127"/>
	<rect id="svg_23" x="429.799" y="6.313" stroke="#000000" stroke-width="5" width="23" height="127"/>
	<rect id="svg_24" x="485.799" y="6.313" stroke="#000000" stroke-width="5" width="23" height="127"/>
	<rect id="svg_25" x="595.799" y="9.313" stroke="#000000" stroke-width="5" width="23" height="127"/>
	<rect id="svg_26" x="649.799" y="9.313" fill="none" stroke="#000000" stroke-width="5" width="23" height="127"/>
	<rect id="svg_27" x="704.799" y="8.313" stroke="#000000" stroke-width="5" width="23" height="127"/>
</g>
</svg>
